<svg width="6" height="12" viewBox="0 0 6 12" fill="none" xmlns="http://www.w3.org/2000/svg">
<path id="Vector" fill-rule="evenodd" clip-rule="evenodd" d="M0.125877 0.125877C0.165677 0.0859757 0.212958 0.0543185 0.265012 0.0327185C0.317066 0.0111185 0.37287 0 0.429228 0C0.485585 0 0.541389 0.0111185 0.593443 0.0327185C0.645497 0.0543185 0.692779 0.0859757 0.732579 0.125877L5.87412 5.26742C5.91402 5.30722 5.94568 5.3545 5.96728 5.40656C5.98888 5.45861 6 5.51441 6 5.57077C6 5.62713 5.98888 5.68293 5.96728 5.73499C5.94568 5.78704 5.91402 5.83432 5.87412 5.87412L0.732579 11.0157C0.652125 11.0961 0.543006 11.1413 0.429228 11.1413C0.315449 11.1413 0.20633 11.0961 0.125877 11.0157C0.0454229 10.9352 0.000224329 10.8261 0.000224329 10.7123C0.000224329 10.5985 0.0454229 10.4894 0.125877 10.409L4.96493 5.57077L0.125877 0.732579C0.0859754 0.692779 0.0543181 0.645498 0.0327181 0.593444C0.0111181 0.54139 0 0.485586 0 0.429228C0 0.37287 0.0111181 0.317067 0.0327181 0.265013C0.0543181 0.212959 0.0859754 0.165677 0.125877 0.125877Z" fill="#272727"/>
</svg>
